<svg version="1.1" viewBox="0.0 0.0 2394.8923884514434 623.1889763779527" fill="none" stroke="none" stroke-linecap="square" stroke-miterlimit="10" xmlns:xlink="http://www.w3.org/1999/xlink" xmlns="http://www.w3.org/2000/svg"><clipPath id="p.0"><path d="m0 0l2394.8923 0l0 623.18896l-2394.8923 0l0 -623.18896z" clip-rule="nonzero"/></clipPath><g clip-path="url(#p.0)"><path fill="#000000" fill-opacity="0.0" d="m0 0l2394.8923 0l0 623.18896l-2394.8923 0z" fill-rule="evenodd"/><path fill="#2ed593" d="m628.425 137.77048l-221.07083 129.3132l0 244.16711l221.07083 -129.3132z" fill-rule="evenodd"/><path stroke="#2ed593" stroke-width="24.0" stroke-linejoin="round" stroke-linecap="butt" d="m628.425 137.77048l-221.07083 129.3132l0 244.16711l221.07083 -129.3132z" fill-rule="evenodd"/><path fill="#ffffff" d="m182.28383 137.77048l225.07088 129.31671l0 244.1636l-225.07088 -129.31671z" fill-rule="evenodd"/><path stroke="#2ed593" stroke-width="24.0" stroke-linejoin="round" stroke-linecap="butt" d="m182.28383 137.77048l225.07088 129.31671l0 244.1636l-225.07088 -129.31671z" fill-rule="evenodd"/><path fill="#000000" fill-opacity="0.0" d="m182.28383 259.85226l225.07088 129.32285" fill-rule="evenodd"/><path stroke="#2ed593" stroke-width="4.0" stroke-linejoin="round" stroke-linecap="butt" d="m182.28383 259.85226l225.07088 129.32285" fill-rule="evenodd"/><path fill="#000000" fill-opacity="0.0" d="m294.81927 202.42883l0 244.15747" fill-rule="evenodd"/><path stroke="#2ed593" stroke-width="4.0" stroke-linejoin="round" stroke-linecap="butt" d="m294.81927 202.42883l0 244.15747" fill-rule="evenodd"/><path fill="#000000" fill-opacity="0.0" d="m182.2702 203.33792l225.07086 129.29132" fill-rule="evenodd"/><path stroke="#2ed593" stroke-width="4.0" stroke-linejoin="round" stroke-linecap="butt" d="m182.2702 203.33792l225.07086 129.29132" fill-rule="evenodd"/><path fill="#000000" fill-opacity="0.0" d="m182.2702 321.60446l225.07086 129.29132" fill-rule="evenodd"/><path stroke="#2ed593" stroke-width="4.0" stroke-linejoin="round" stroke-linecap="butt" d="m182.2702 321.60446l225.07086 129.29132" fill-rule="evenodd"/><path fill="#000000" fill-opacity="0.0" d="m694.81494 47.937744l1590.3623 0l0 432.18896l-1590.3623 0z" fill-rule="evenodd"/><path fill="#29bf83" d="m976.7236 334.61337q0 48.53125 -22.046875 77.453125q-22.03125 28.90625 -59.15625 28.90625q-34.421875 0 -55.109375 -22.625l0 99.18747l-46.984375 0l0 -289.65622l43.3125 0l1.921875 21.265625q20.6875 -25.125 56.265625 -25.125q38.296875 0 60.046875 28.515625q21.75 28.515625 21.75 79.1875l0 2.890625zm-46.796875 -4.0625q0 -31.3125 -12.46875 -49.6875q-12.46875 -18.375 -35.671875 -18.375q-28.8125 0 -41.375 23.78125l0 92.8125q12.75 24.375 41.765625 24.375q22.421875 0 35.078125 -18.078125q12.671875 -18.078125 12.671875 -54.828125zm211.53717 106.546875q-3.09375 -6.0 -5.40625 -19.53125q-22.4375 23.40625 -54.921875 23.40625q-31.515625 0 -51.4375 -17.984375q-19.906311 -17.984375 -19.906311 -44.484375q0 -33.453125 24.843811 -51.328125q24.84375 -17.890625 71.0625 -17.890625l28.8125 0l0 -13.734375q0 -16.234375 -9.09375 -26.0q-9.09375 -9.765625 -27.65625 -9.765625q-16.046875 0 -26.296875 8.03125q-10.234375 8.015625 -10.234375 20.390625l-47.00006 0q0 -17.203125 11.406311 -32.1875q11.421875 -14.984375 31.046875 -23.484375q19.625 -8.515625 43.796875 -8.515625q36.734375 0 58.578125 18.46875q21.859375 18.453125 22.4375 51.90625l0 94.359375q0 28.234375 7.921875 45.0625l0 3.28125l-47.953125 0zm-51.625 -33.84375q13.921875 0 26.203125 -6.765625q12.28125 -6.765625 18.46875 -18.171875l0 -39.453125l-25.328125 0q-26.109375 0 -39.265625 9.09375q-13.140625 9.09375 -13.140625 25.71875q0 13.53125 8.984375 21.5625q9.0 8.015625 24.078125 8.015625zm184.46094 -175.375l1.359375 24.171875q23.203125 -28.03125 60.90625 -28.03125q65.359375 0 66.515625 74.828125l0 138.25l-46.984375 0l0 -135.54688q0 -19.921875 -8.609375 -29.484375q-8.59375 -9.578125 -28.125 -9.578125q-28.421875 0 -42.34375 25.71875l0 148.89062l-47.0 0l0 -209.21875l44.28125 0zm167.8457 103.0625q0 -48.34375 22.421875 -77.625q22.4375 -29.296875 60.140625 -29.296875q33.25 0 53.75 23.203125l0 -107.125l46.984375 0l0 297.0l-42.53125 0l-2.328125 -21.65625q-21.078125 25.53125 -56.265625 25.53125q-36.734375 0 -59.453125 -29.578125q-22.71875 -29.59375 -22.71875 -80.453125zm46.984375 4.0625q0 31.90625 12.265625 49.796875q12.28125 17.875 34.90625 17.875q28.8125 0 42.15625 -25.71875l0 -89.328125q-12.953125 -25.140625 -41.765625 -25.140625q-22.8125 0 -35.1875 18.078125q-12.375 18.078125 -12.375 54.4375zm277.46094 105.96875q-44.65625 0 -72.40625 -28.140625q-27.75 -28.140625 -27.75 -74.921875l0 -5.8125q0 -31.3125 12.078125 -55.96875q12.09375 -24.65625 33.9375 -38.375q21.859375 -13.734375 48.734375 -13.734375q42.734375 0 66.03125 27.265625q23.296875 27.25 23.296875 77.140625l0 18.953125l-136.70312 0q2.125 25.90625 17.296875 41.0q15.1875 15.078125 38.203125 15.078125q32.28125 0 52.59375 -26.109375l25.328125 24.171875q-12.578125 18.75 -33.5625 29.109375q-20.96875 10.34375 -47.078125 10.34375zm-5.59375 -179.25q-19.34375 0 -31.234375 13.53125q-11.890625 13.53125 -15.171875 37.703125l89.515625 0l0 -3.484375q-1.546875 -23.578125 -12.578125 -35.65625q-11.015625 -12.09375 -30.53125 -12.09375zm235.50195 9.078125q-9.28125 -1.546875 -19.140625 -1.546875q-32.296875 0 -43.5 24.75l0 143.09375l-46.984375 0l0 -209.21875l44.859375 0l1.15625 23.40625q17.015625 -27.265625 47.171875 -27.265625q10.0625 0 16.640625 2.703125l-0.203125 44.078125zm148.88672 166.29688q-3.09375 -6.0 -5.40625 -19.53125q-22.4375 23.40625 -54.921875 23.40625q-31.515625 0 -51.4375 -17.984375q-19.90625 -17.984375 -19.90625 -44.484375q0 -33.453125 24.84375 -51.328125q24.84375 -17.890625 71.0625 -17.890625l28.8125 0l0 -13.734375q0 -16.234375 -9.09375 -26.0q-9.09375 -9.765625 -27.65625 -9.765625q-16.046875 0 -26.296875 8.03125q-10.234375 8.015625 -10.234375 20.390625l-47.0 0q0 -17.203125 11.40625 -32.1875q11.421875 -14.984375 31.046875 -23.484375q19.625 -8.515625 43.796875 -8.515625q36.734375 0 58.578125 18.46875q21.859375 18.453125 22.4375 51.90625l0 94.359375q0 28.234375 7.921875 45.0625l0 3.28125l-47.953125 0zm-51.625 -33.84375q13.921875 0 26.203125 -6.765625q12.28125 -6.765625 18.46875 -18.171875l0 -39.453125l-25.328125 0q-26.109375 0 -39.265625 9.09375q-13.140625 9.09375 -13.140625 25.71875q0 13.53125 8.984375 21.5625q9.0 8.015625 24.078125 8.015625z" fill-rule="nonzero"/></g></svg>