<svg version="1.1" viewBox="0.0 0.0 600.0 600.0" fill="none" stroke="none" stroke-linecap="square" stroke-miterlimit="10" xmlns:xlink="http://www.w3.org/1999/xlink" xmlns="http://www.w3.org/2000/svg"><clipPath id="p.0"><path d="m0 0l600.0 0l0 600.0l-600.0 0l0 -600.0z" clip-rule="nonzero"/></clipPath><g clip-path="url(#p.0)"><path fill="#000000" fill-opacity="0.0" d="m0 0l600.0 0l0 600.0l-600.0 0z" fill-rule="evenodd"/><path fill="#2ed593" d="m551.1493 306.17056l-249.10236 109.34235l0 77.58679l249.10236 -109.342316z" fill-rule="evenodd"/><path stroke="#2ed593" stroke-width="8.0" stroke-linejoin="round" stroke-linecap="butt" d="m551.1493 306.17056l-249.10236 109.34235l0 77.58679l249.10236 -109.342316z" fill-rule="evenodd"/><path fill="#2ed593" d="m48.472755 306.17056l253.5748 107.40201l0 79.52713l-253.5748 -107.40201z" fill-rule="evenodd"/><path stroke="#2ed593" stroke-width="8.0" stroke-linejoin="round" stroke-linecap="butt" d="m48.472755 306.17056l253.5748 107.40201l0 79.52713l-253.5748 -107.40201z" fill-rule="evenodd"/><path fill="#2ed593" d="m48.47769 180.78215l10.929134 3.7256317l0 200.80981l-10.929134 -3.725647z" fill-rule="evenodd"/><path stroke="#2ed593" stroke-width="8.0" stroke-linejoin="round" stroke-linecap="butt" d="m48.47769 180.78215l10.929134 3.7256317l0 200.80981l-10.929134 -3.725647z" fill-rule="evenodd"/><path fill="#2ed593" d="m551.1496 113.66273l-11.559021 3.9403687l0 267.7132l11.559021 -3.9403687z" fill-rule="evenodd"/><path stroke="#2ed593" stroke-width="8.0" stroke-linejoin="round" stroke-linecap="butt" d="m551.1496 113.66273l-11.559021 3.9403687l0 267.7132l11.559021 -3.9403687z" fill-rule="evenodd"/><path fill="#2ed593" d="m48.472443 106.90026l253.5748 111.45963l0 11.5954895l-253.5748 -111.45964z" fill-rule="evenodd"/><path stroke="#2ed593" stroke-width="8.0" stroke-linejoin="round" stroke-linecap="butt" d="m48.472443 106.90026l253.5748 111.45963l0 11.5954895l-253.5748 -111.45964z" fill-rule="evenodd"/><path fill="#2ed593" d="m551.51184 106.90026l-249.8583 111.45963l0 11.5954895l249.8583 -111.45964z" fill-rule="evenodd"/><path stroke="#2ed593" stroke-width="8.0" stroke-linejoin="round" stroke-linecap="butt" d="m551.51184 106.90026l-249.8583 111.45963l0 11.5954895l249.8583 -111.45964z" fill-rule="evenodd"/><path fill="#2ed593" d="m48.472443 174.71783l253.5748 107.97919l0 11.233398l-253.5748 -107.97919z" fill-rule="evenodd"/><path stroke="#2ed593" stroke-width="8.0" stroke-linejoin="round" stroke-linecap="butt" d="m48.472443 174.71783l253.5748 107.97919l0 11.233398l-253.5748 -107.97919z" fill-rule="evenodd"/><path fill="#2ed593" d="m499.35565 191.80446l-196.72443 91.29021l0 9.497192l196.72443 -91.29019z" fill-rule="evenodd"/><path stroke="#2ed593" stroke-width="12.0" stroke-linejoin="round" stroke-linecap="butt" d="m499.35565 191.80446l-196.72443 91.29021l0 9.497192l196.72443 -91.29019z" fill-rule="evenodd"/></g></svg>