<svg version="1.1" viewBox="0.0 0.0 1200.0 1200.0" fill="none" stroke="none" stroke-linecap="square" stroke-miterlimit="10" xmlns:xlink="http://www.w3.org/1999/xlink" xmlns="http://www.w3.org/2000/svg"><clipPath id="p.0"><path d="m0 0l1200.0 0l0 1200.0l-1200.0 0l0 -1200.0z" clip-rule="nonzero"/></clipPath><g clip-path="url(#p.0)"><path fill="#000000" fill-opacity="0.0" d="m0 0l1200.0 0l0 1200.0l-1200.0 0z" fill-rule="evenodd"/><path fill="#2ed593" d="m1102.6711 179.23235l-498.17328 291.40143l0 550.14185l498.17328 -291.40143z" fill-rule="evenodd"/><path stroke="#2ed593" stroke-width="24.0" stroke-linejoin="round" stroke-linecap="butt" d="m1102.6711 179.23235l-498.17328 291.40143l0 550.14185l498.17328 -291.40143z" fill-rule="evenodd"/><path fill="#ffffff" d="m97.34953 179.23235l507.1496 291.38788l0 550.1554l-507.1496 -291.38788z" fill-rule="evenodd"/><path stroke="#2ed593" stroke-width="24.0" stroke-linejoin="round" stroke-linecap="butt" d="m97.34953 179.23235l507.1496 291.38788l0 550.1554l-507.1496 -291.38788z" fill-rule="evenodd"/><path fill="#000000" fill-opacity="0.0" d="m97.34953 454.31006l507.1496 291.40155" fill-rule="evenodd"/><path stroke="#2ed593" stroke-width="4.0" stroke-linejoin="round" stroke-linecap="butt" d="m97.34953 454.31006l507.1496 291.40155" fill-rule="evenodd"/><path fill="#000000" fill-opacity="0.0" d="m350.92435 324.92627l0 550.1417" fill-rule="evenodd"/><path stroke="#2ed593" stroke-width="4.0" stroke-linejoin="round" stroke-linecap="butt" d="m350.92435 324.92627l0 550.1417" fill-rule="evenodd"/><path fill="#000000" fill-opacity="0.0" d="m97.315956 326.9754l507.14963 291.37012" fill-rule="evenodd"/><path stroke="#2ed593" stroke-width="4.0" stroke-linejoin="round" stroke-linecap="butt" d="m97.315956 326.9754l507.14963 291.37012" fill-rule="evenodd"/><path fill="#000000" fill-opacity="0.0" d="m97.315956 593.46533l507.14963 291.37006" fill-rule="evenodd"/><path stroke="#2ed593" stroke-width="4.0" stroke-linejoin="round" stroke-linecap="butt" d="m97.315956 593.46533l507.14963 291.37006" fill-rule="evenodd"/></g></svg>